<svg width="413" height="27" viewBox="0 0 413 27" fill="none" xmlns="http://www.w3.org/2000/svg">
<path d="M0.628 25.64C1.252 25.64 1.78 25.424 2.212 24.992C2.668 24.536 2.908 23.996 2.932 23.372V3.212C2.86 2.636 2.608 2.156 2.176 1.772C1.744 1.364 1.228 1.16 0.628 1.16H0.196L0.16 0.799998H10.708C11.452 0.799998 12.256 0.727998 13.12 0.583999C14.008 0.439999 14.632 0.295999 14.992 0.151998V4.688H14.632V4.04C14.632 3.464 14.428 2.972 14.02 2.564C13.636 2.156 13.168 1.94 12.616 1.916H5.272V13.04H11.356C11.836 13.016 12.244 12.836 12.58 12.5C12.916 12.164 13.084 11.744 13.084 11.24V10.736H13.444V16.424H13.084V15.884C13.084 15.404 12.916 14.996 12.58 14.66C12.268 14.324 11.872 14.144 11.392 14.12H5.272V24.884H10.42C12.196 24.884 13.552 24.488 14.488 23.696C15.424 22.904 16.204 21.728 16.828 20.168H17.188L15.1 26H0.16V25.64H0.628ZM41.2456 26H39.9136C37.5616 26 35.7976 25.316 34.6216 23.948L26.7016 15.272L34.4416 6.164C34.7056 5.828 34.7416 5.516 34.5496 5.228C34.3816 4.916 34.0816 4.76 33.6496 4.76H33.3256V4.4H40.6696V4.76H40.5256C39.0616 4.76 37.8976 5.192 37.0336 6.056L29.1856 14.444L38.1136 24.164C38.5456 24.692 38.9896 25.064 39.4456 25.28C39.9016 25.496 40.5016 25.616 41.2456 25.64V26ZM27.5656 25.64H27.9616V26H20.5816V25.64H21.0136C21.5896 25.64 22.0816 25.448 22.4896 25.064C22.8976 24.68 23.1136 24.224 23.1376 23.696V6.704C23.1136 6.176 22.8976 5.72 22.4896 5.336C22.0816 4.952 21.5896 4.76 21.0136 4.76H20.5816V4.4H27.9616V4.76H27.5296C26.7616 4.76 26.1616 5.072 25.7296 5.696C25.5376 5.984 25.4416 6.308 25.4416 6.668V23.732C25.4416 24.26 25.6456 24.716 26.0536 25.1C26.4856 25.46 26.9896 25.64 27.5656 25.64ZM64.8264 25.64H65.1144V26H57.7344V25.64H58.0224C58.4784 25.64 58.8264 25.484 59.0664 25.172C59.3064 24.86 59.4264 24.572 59.4264 24.308C59.4264 24.02 59.3784 23.744 59.2824 23.48L57.3024 18.692H48.1944L46.2144 23.372C46.0944 23.684 46.0344 23.984 46.0344 24.272C46.0344 24.536 46.1544 24.836 46.3944 25.172C46.6344 25.484 46.9944 25.64 47.4744 25.64H47.7624V26H40.8864V25.64H41.1744C41.6784 25.64 42.1824 25.472 42.6864 25.136C43.2144 24.776 43.6464 24.248 43.9824 23.552C49.2384 12.32 51.9744 6.44 52.1904 5.912C52.5984 4.904 52.8144 4.232 52.8384 3.896H53.1624L62.0544 23.552C62.7504 24.944 63.6744 25.64 64.8264 25.64ZM48.6624 17.612H56.8704L52.8384 7.748L48.6624 17.612ZM73.9983 5.444V23.732C74.0223 24.476 74.3823 25.028 75.0783 25.388C75.3903 25.556 75.7383 25.64 76.1223 25.64H76.5183V26H69.1023V25.64H69.5343C70.1103 25.64 70.6023 25.448 71.0103 25.064C71.4183 24.68 71.6343 24.224 71.6582 23.696V5.444H65.1423C64.5903 5.444 64.1463 5.624 63.8103 5.984C63.4983 6.344 63.3423 6.776 63.3423 7.28V7.856H62.9463V3.788C63.4263 3.98 64.0983 4.124 64.9623 4.22C65.8503 4.316 66.5103 4.364 66.9423 4.364H78.6783C80.4063 4.364 81.7503 4.172 82.7103 3.788V7.856H82.3143V7.28C82.3143 6.776 82.1463 6.344 81.8103 5.984C81.4743 5.624 81.0423 5.444 80.5143 5.444H73.9983ZM85.7028 25.64C86.2788 25.64 86.7588 25.46 87.1428 25.1C87.5508 24.716 87.7668 24.26 87.7908 23.732V6.632C87.7908 6.104 87.5868 5.66 87.1788 5.3C86.7708 4.94 86.2788 4.76 85.7028 4.76H85.1988V4.4H95.7108C96.6948 4.4 97.5588 4.328 98.3028 4.184C99.0468 4.04 99.5268 3.92 99.7428 3.824V7.928L99.3468 7.892V7.352C99.3468 6.848 99.1788 6.416 98.8428 6.056C98.5068 5.696 98.0748 5.516 97.5468 5.516H90.0588V14.66H96.2148C96.6948 14.66 97.0548 14.516 97.2948 14.228C97.5588 13.94 97.6908 13.58 97.6908 13.148V12.68H98.0868V17.72H97.6908V17.252C97.6908 16.58 97.4388 16.124 96.9348 15.884C96.7428 15.812 96.5388 15.764 96.3228 15.74H90.0588V24.884H95.7108C96.8148 24.884 97.7388 24.692 98.4828 24.308C99.2508 23.924 99.8268 23.468 100.211 22.94C100.619 22.412 101.027 21.716 101.435 20.852H101.795L99.8148 26H85.1988V25.64H85.7028ZM111.232 5.516H109.324V23.696C109.348 24.44 109.684 25.004 110.332 25.388C110.644 25.556 110.992 25.64 111.376 25.64H111.844L111.88 26H104.5V25.64H105.004C105.556 25.64 106.024 25.46 106.408 25.1C106.816 24.716 107.02 24.26 107.02 23.732V6.632C107.02 6.104 106.816 5.66 106.408 5.3C106.024 4.94 105.556 4.76 105.004 4.76H104.5V4.4H113.536C115.792 4.4 117.568 4.916 118.864 5.948C120.184 6.98 120.844 8.336 120.844 10.016C120.844 11.696 120.316 13.1 119.26 14.228C118.204 15.356 116.86 16.004 115.228 16.172C115.996 16.508 116.92 17.444 118 18.98C117.976 18.98 118.384 19.508 119.224 20.564C120.088 21.62 120.772 22.448 121.276 23.048C121.804 23.624 122.236 24.068 122.572 24.38C123.46 25.22 124.48 25.64 125.632 25.64V26H124.516C122.62 26 121.132 25.628 120.052 24.884C119.236 24.332 118.492 23.648 117.82 22.832C117.676 22.64 117.064 21.8 115.984 20.312C114.928 18.8 114.364 17.996 114.292 17.9C112.996 16.292 111.784 15.488 110.656 15.488V15.128C113.464 15.128 115.156 14.984 115.732 14.696C116.524 14.288 117.064 13.856 117.352 13.4C117.952 12.44 118.252 11.384 118.252 10.232C118.252 8.768 117.82 7.64 116.956 6.848C116.092 6.056 114.928 5.624 113.464 5.552C112.816 5.528 112.072 5.516 111.232 5.516ZM127.574 25.64C128.222 25.64 128.786 25.448 129.266 25.064C129.746 24.68 129.986 24.224 129.986 23.696V6.704C129.986 6.176 129.746 5.72 129.266 5.336C128.786 4.952 128.21 4.76 127.538 4.76H127.07V4.4H135.206V4.76H134.738C134.09 4.76 133.526 4.94 133.046 5.3C132.59 5.66 132.338 6.104 132.29 6.632V23.732C132.314 24.26 132.566 24.716 133.046 25.1C133.526 25.46 134.09 25.64 134.738 25.64H135.206L135.242 26H127.07V25.64H127.574ZM163.356 4.76C162.828 4.76 162.372 4.94 161.988 5.3C161.604 5.636 161.4 6.056 161.376 6.56V21.896C161.376 23.288 161.46 24.608 161.628 25.856L161.7 26.504H161.376L142.656 8.756V23.768C142.656 24.296 142.848 24.74 143.232 25.1C143.616 25.46 144.084 25.64 144.636 25.64H145.248V26H138.444V25.64H139.056C139.608 25.64 140.076 25.46 140.46 25.1C140.844 24.74 141.036 24.296 141.036 23.768V8.36C141.036 6.896 140.952 5.588 140.784 4.436L140.712 3.86L141.108 3.896L159.792 21.5V6.56C159.744 6.056 159.528 5.636 159.144 5.3C158.76 4.94 158.304 4.76 157.776 4.76H157.164V4.4H163.968V4.76H163.356ZM188.998 25.64H189.286V26H181.906V25.64H182.194C182.65 25.64 182.998 25.484 183.238 25.172C183.478 24.86 183.598 24.572 183.598 24.308C183.598 24.02 183.55 23.744 183.454 23.48L181.474 18.692H172.366L170.386 23.372C170.266 23.684 170.206 23.984 170.206 24.272C170.206 24.536 170.326 24.836 170.566 25.172C170.806 25.484 171.166 25.64 171.646 25.64H171.934V26H165.058V25.64H165.346C165.85 25.64 166.354 25.472 166.858 25.136C167.386 24.776 167.818 24.248 168.154 23.552C173.41 12.32 176.146 6.44 176.362 5.912C176.77 4.904 176.986 4.232 177.01 3.896H177.334L186.226 23.552C186.922 24.944 187.846 25.64 188.998 25.64ZM172.834 17.612H181.042L177.01 7.748L172.834 17.612ZM230.509 25.64H231.085V26H223.273V25.676H223.813C224.221 25.676 224.569 25.52 224.857 25.208C225.145 24.872 225.265 24.512 225.217 24.128L223.597 6.02L216.037 22.832C215.365 24.296 214.957 25.52 214.813 26.504H214.453L205.237 6.524L203.689 24.128C203.641 24.512 203.761 24.872 204.049 25.208C204.337 25.52 204.673 25.676 205.057 25.676H205.633V26H198.649V25.64H199.225C199.897 25.64 200.473 25.436 200.953 25.028C201.457 24.62 201.757 24.068 201.853 23.372L204.553 0.295998H204.913L214.957 22.004L224.785 0.295998H225.109L227.881 23.372C228.001 24.332 228.481 25.004 229.321 25.388C229.681 25.556 230.077 25.64 230.509 25.64ZM234.097 25.64C234.673 25.64 235.153 25.46 235.537 25.1C235.945 24.716 236.161 24.26 236.185 23.732V6.632C236.185 6.104 235.981 5.66 235.573 5.3C235.165 4.94 234.673 4.76 234.097 4.76H233.593V4.4H244.105C245.089 4.4 245.953 4.328 246.697 4.184C247.441 4.04 247.921 3.92 248.137 3.824V7.928L247.741 7.892V7.352C247.741 6.848 247.573 6.416 247.237 6.056C246.901 5.696 246.469 5.516 245.941 5.516H238.453V14.66H244.609C245.089 14.66 245.449 14.516 245.689 14.228C245.953 13.94 246.085 13.58 246.085 13.148V12.68H246.481V17.72H246.085V17.252C246.085 16.58 245.833 16.124 245.329 15.884C245.137 15.812 244.933 15.764 244.717 15.74H238.453V24.884H244.105C245.209 24.884 246.133 24.692 246.877 24.308C247.645 23.924 248.221 23.468 248.605 22.94C249.013 22.412 249.421 21.716 249.829 20.852H250.189L248.209 26H233.593V25.64H234.097ZM276.474 15.2C276.474 18.536 275.43 21.176 273.342 23.12C271.278 25.04 268.47 26 264.918 26H252.894V25.64H253.362C253.938 25.64 254.418 25.448 254.802 25.064C255.186 24.68 255.39 24.224 255.414 23.696V6.704C255.39 6.128 255.174 5.66 254.766 5.3C254.382 4.94 253.902 4.76 253.326 4.76H252.894V4.4H264.918C267.27 4.4 269.31 4.832 271.038 5.696C272.79 6.56 274.134 7.808 275.07 9.44C276.006 11.072 276.474 12.992 276.474 15.2ZM257.754 5.48V24.92H264.918C267.678 24.92 269.862 24.056 271.47 22.328C273.078 20.576 273.882 18.2 273.882 15.2C273.882 12.2 273.078 9.836 271.47 8.108C269.862 6.356 267.678 5.48 264.918 5.48H257.754ZM301.647 4.76H301.359C300.831 4.76 300.315 4.94 299.811 5.3C299.307 5.636 298.875 6.152 298.515 6.848C293.283 18.08 290.559 23.96 290.343 24.488C289.935 25.496 289.719 26.168 289.695 26.504H289.371L280.479 6.884C279.783 5.468 278.859 4.76 277.707 4.76H277.418V4.4H284.799V4.76H284.511C284.055 4.76 283.707 4.928 283.467 5.264C283.251 5.576 283.143 5.864 283.143 6.128C283.143 6.392 283.179 6.668 283.251 6.956L289.695 22.652L296.319 7.028C296.439 6.716 296.499 6.428 296.499 6.164C296.499 5.876 296.379 5.576 296.139 5.264C295.899 4.928 295.539 4.76 295.059 4.76H294.807V4.4H301.647V4.76ZM303.918 25.64C304.494 25.64 304.974 25.46 305.358 25.1C305.766 24.716 305.982 24.26 306.006 23.732V6.632C306.006 6.104 305.802 5.66 305.394 5.3C304.986 4.94 304.494 4.76 303.918 4.76H303.414V4.4H313.926C314.91 4.4 315.774 4.328 316.518 4.184C317.262 4.04 317.742 3.92 317.958 3.824V7.928L317.562 7.892V7.352C317.562 6.848 317.394 6.416 317.058 6.056C316.722 5.696 316.29 5.516 315.762 5.516H308.274V14.66H314.43C314.91 14.66 315.27 14.516 315.51 14.228C315.774 13.94 315.906 13.58 315.906 13.148V12.68H316.302V17.72H315.906V17.252C315.906 16.58 315.654 16.124 315.15 15.884C314.958 15.812 314.754 15.764 314.538 15.74H308.274V24.884H313.926C315.03 24.884 315.954 24.692 316.698 24.308C317.466 23.924 318.042 23.468 318.426 22.94C318.834 22.412 319.242 21.716 319.65 20.852H320.01L318.03 26H303.414V25.64H303.918ZM346.294 15.2C346.294 18.536 345.25 21.176 343.162 23.12C341.098 25.04 338.29 26 334.738 26H322.714V25.64H323.182C323.758 25.64 324.238 25.448 324.622 25.064C325.006 24.68 325.21 24.224 325.234 23.696V6.704C325.21 6.128 324.994 5.66 324.586 5.3C324.202 4.94 323.722 4.76 323.146 4.76H322.714V4.4H334.738C337.09 4.4 339.13 4.832 340.858 5.696C342.61 6.56 343.954 7.808 344.89 9.44C345.826 11.072 346.294 12.992 346.294 15.2ZM327.574 5.48V24.92H334.738C337.498 24.92 339.682 24.056 341.29 22.328C342.898 20.576 343.702 18.2 343.702 15.2C343.702 12.2 342.898 9.836 341.29 8.108C339.682 6.356 337.498 5.48 334.738 5.48H327.574ZM350.043 25.64C350.619 25.64 351.099 25.46 351.483 25.1C351.891 24.716 352.107 24.26 352.131 23.732V6.632C352.131 6.104 351.927 5.66 351.519 5.3C351.111 4.94 350.619 4.76 350.043 4.76H349.539V4.4H360.051C361.035 4.4 361.899 4.328 362.643 4.184C363.387 4.04 363.867 3.92 364.083 3.824V7.928L363.687 7.892V7.352C363.687 6.848 363.519 6.416 363.183 6.056C362.847 5.696 362.415 5.516 361.887 5.516H354.399V14.66H360.555C361.035 14.66 361.395 14.516 361.635 14.228C361.899 13.94 362.031 13.58 362.031 13.148V12.68H362.427V17.72H362.031V17.252C362.031 16.58 361.779 16.124 361.275 15.884C361.083 15.812 360.879 15.764 360.663 15.74H354.399V24.884H360.051C361.155 24.884 362.079 24.692 362.823 24.308C363.591 23.924 364.167 23.468 364.551 22.94C364.959 22.412 365.367 21.716 365.775 20.852H366.135L364.155 26H349.539V25.64H350.043ZM391.295 4.76H391.007C390.479 4.76 389.963 4.94 389.459 5.3C388.955 5.636 388.523 6.152 388.163 6.848C382.931 18.08 380.207 23.96 379.991 24.488C379.583 25.496 379.367 26.168 379.343 26.504H379.019L370.127 6.884C369.431 5.468 368.507 4.76 367.355 4.76H367.067V4.4H374.447V4.76H374.159C373.703 4.76 373.355 4.928 373.115 5.264C372.899 5.576 372.791 5.864 372.791 6.128C372.791 6.392 372.827 6.668 372.899 6.956L379.343 22.652L385.967 7.028C386.087 6.716 386.147 6.428 386.147 6.164C386.147 5.876 386.027 5.576 385.787 5.264C385.547 4.928 385.187 4.76 384.707 4.76H384.455V4.4H391.295V4.76ZM411.783 25.64H412.071V26H404.691V25.64H404.979C405.435 25.64 405.783 25.484 406.023 25.172C406.263 24.86 406.383 24.572 406.383 24.308C406.383 24.02 406.335 23.744 406.239 23.48L404.259 18.692H395.151L393.171 23.372C393.051 23.684 392.991 23.984 392.991 24.272C392.991 24.536 393.111 24.836 393.351 25.172C393.591 25.484 393.951 25.64 394.431 25.64H394.719V26H387.843V25.64H388.131C388.635 25.64 389.139 25.472 389.643 25.136C390.171 24.776 390.603 24.248 390.939 23.552C396.195 12.32 398.931 6.44 399.147 5.912C399.555 4.904 399.771 4.232 399.795 3.896H400.119L409.011 23.552C409.707 24.944 410.631 25.64 411.783 25.64ZM395.619 17.612H403.827L399.795 7.748L395.619 17.612Z" fill="black"/>
</svg>
