<?xml version="1.0" standalone="no"?>
<!DOCTYPE svg PUBLIC "-//W3C//DTD SVG 20010904//EN"
 "http://www.w3.org/TR/2001/REC-SVG-20010904/DTD/svg10.dtd">
<svg version="1.0" xmlns="http://www.w3.org/2000/svg"
 width="260.000000pt" height="260.000000pt" viewBox="0 0 260.000000 260.000000"
 preserveAspectRatio="xMidYMid meet">
<metadata>
Created by potrace 1.11, written by Peter Selinger 2001-2013
</metadata>
<g transform="translate(0.000000,260.000000) scale(0.100000,-0.100000)"
fill="#000000" stroke="none">
<path d="M1309 2118 c0 -24 -2 -50 -4 -59 -1 -8 -6 -42 -9 -75 -4 -32 -9 -75
-11 -94 -2 -19 -7 -57 -10 -85 -3 -27 -7 -66 -10 -85 -2 -19 -6 -57 -10 -85
-3 -27 -7 -66 -10 -85 -2 -19 -7 -55 -9 -80 -22 -194 -37 -293 -46 -310 -14
-26 -48 -48 -82 -52 -15 -2 -30 -7 -34 -11 -4 -4 62 -7 146 -7 84 0 150 3 146
7 -3 4 -17 8 -29 10 -33 5 -55 37 -52 75 2 18 6 69 10 113 4 44 9 94 10 110 2
17 6 62 10 100 3 39 7 88 10 110 2 22 7 85 11 140 3 55 9 106 13 113 4 7 23
-24 46 -75 21 -49 65 -143 97 -211 32 -67 58 -124 58 -126 0 -2 28 -64 63
-137 35 -74 74 -160 88 -191 27 -65 44 -73 54 -25 6 26 111 268 275 632 17 39
41 92 53 119 l22 48 6 -33 c4 -18 10 -67 14 -108 3 -42 8 -96 10 -121 2 -25 7
-74 10 -110 3 -36 8 -85 10 -110 2 -25 7 -76 10 -115 3 -38 8 -90 11 -113 5
-36 2 -48 -17 -68 -12 -13 -26 -21 -30 -18 -5 3 -17 0 -26 -5 -13 -7 32 -10
156 -11 96 0 171 3 167 7 -4 4 -19 9 -33 11 -71 9 -96 43 -108 147 -10 88 -16
139 -20 175 -3 19 -7 58 -10 85 -3 28 -8 66 -10 85 -3 19 -7 51 -10 70 -2 19
-7 58 -10 85 -3 28 -8 68 -10 90 -28 226 -35 291 -35 302 0 7 -5 13 -11 13
-10 0 -22 -24 -117 -235 -43 -95 -176 -388 -222 -490 -15 -33 -38 -84 -50
-112 -20 -48 -40 -69 -40 -43 0 5 -22 56 -48 112 -27 57 -117 253 -202 436
-89 191 -159 332 -167 332 -9 0 -13 -14 -14 -42z"/>
<path d="M1069 1966 c-13 -13 -123 -18 -439 -22 -195 -3 -366 -6 -380 -7 -30
-4 -13 -13 43 -22 21 -3 52 -19 69 -34 l32 -28 0 -493 c1 -355 -2 -501 -11
-521 -15 -36 -52 -59 -103 -66 -120 -16 -8 -23 388 -23 l439 0 61 138 c39 87
57 138 49 141 -6 2 -13 -1 -15 -7 -10 -30 -83 -120 -120 -149 -72 -54 -131
-66 -349 -67 -165 -2 -192 0 -195 14 -2 8 -4 121 -3 250 l0 235 188 3 c218 3
239 -2 258 -68 7 -22 16 -40 21 -40 10 0 11 264 1 274 -4 4 -12 -10 -18 -30
-5 -20 -23 -46 -38 -58 -26 -19 -42 -21 -217 -22 -132 -1 -190 2 -192 10 -2 6
-4 124 -4 261 l1 250 220 0 c121 1 232 -3 246 -8 49 -15 73 -52 78 -120 1 -5
6 -5 11 -2 6 3 10 52 10 111 0 80 -3 104 -13 104 -8 0 -16 -2 -18 -4z"/>
</g>
</svg>
